# xmcd
#
# Track frame offsets:
#	150
#	20165
#	42930
#	68585
#	95545
#	111173
#	136401
#	149809
#
# Disc length: 2556 seconds
#
# Revision: 7
# Processed by: cddbd v1.5.1PL0 Copyright (c) Steve Scherf et al.
# Submitted via: EasyCDDAExtractor 8.2.1.1
#
DISCID=7609fa08
DTITLE=Leonard Cohen - Death Of Ladies' Man
DYEAR=1977
DGENRE=Blues
TTITLE0=True Love Leaves No Traces
TTITLE1=Iodine
TTITLE2=Paper Thin Hotel
TTITLE3=Memories
TTITLE4=I Left A Woman Waiting
TTITLE5=Don't Go Home With You Hard-On
TTITLE6=Fingerprints
TTITLE7=Death Of Ladies' Man
EXTD=Produced by Phil Spector.\n\nLeonard Cohen, describing the process of mak
EXTD=ing\nthis recording:  "It was a disaster".\n\nSpector locked him out of t
EXTD=he final process, worked very\nhard at drowning out Leonard's vocals, add
EXTD=ed his own\nwriting credit.\n\n ID3G:   0
EXTT0=
EXTT1=
EXTT2=
EXTT3=
EXTT4=
EXTT5=
EXTT6=
EXTT7=
PLAYORDER=
